<svg xmlns="http://www.w3.org/2000/svg" xmlns:xlink="http://www.w3.org/1999/xlink" viewBox="0,0,256,256" width="64px" height="64px" fill-rule="nonzero"><g transform="translate(-44.8,-44.8) scale(1.35,1.35)"><g fill="none" fill-rule="nonzero" stroke="none" stroke-width="1" stroke-linecap="butt" stroke-linejoin="miter" stroke-miterlimit="10" stroke-dasharray="" stroke-dashoffset="0" font-family="none" font-weight="none" font-size="none" text-anchor="none" style="mix-blend-mode: normal"><g transform="scale(4,4)"><ellipse cx="32" cy="61" rx="19" ry="3" fill="#1e88e5" opacity="0.3"></ellipse><circle cx="32" cy="32" r="23" fill="#37d0ee"></circle><path d="M15,33c0,-9.925 8.075,-18 18,-18c2.761,0 5,-2.238 5,-5c0,-0.072 -0.018,-0.139 -0.021,-0.21c-1.907,-0.513 -3.91,-0.79 -5.979,-0.79c-12.703,0 -23,10.297 -23,23c0,2.069 0.278,4.072 0.79,5.979c0.071,0.003 0.138,0.021 0.21,0.021c2.761,0 5,-2.238 5,-5z" fill="#ffffff" opacity="0.3"></path><path d="M49,31c0,9.925 -8.075,18 -18,18c-2.761,0 -5,2.238 -5,5c0,0.072 0.018,0.139 0.021,0.21c1.907,0.513 3.91,0.79 5.979,0.79c12.703,0 23,-10.297 23,-23c0,-2.069 -0.278,-4.072 -0.79,-5.979c-0.071,-0.003 -0.138,-0.021 -0.21,-0.021c-2.761,0 -5,2.238 -5,5z" fill="#1e88e5" opacity="0.15"></path><path d="M15.688,25.481c-0.238,0 -0.479,-0.057 -0.705,-0.177c-0.73,-0.39 -1.007,-1.298 -0.617,-2.029c1.568,-2.943 3.844,-5.529 6.58,-7.479c0.673,-0.481 1.61,-0.324 2.092,0.352c0.48,0.674 0.323,1.611 -0.352,2.092c-2.359,1.682 -4.321,3.911 -5.674,6.447c-0.269,0.506 -0.787,0.794 -1.324,0.794z" fill="#ffffff"></path><g fill="#008aa9"><path d="M32.635,42c-2.6,0 -4.608,-0.891 -6.023,-2.671c-1.415,-1.782 -2.123,-4.3 -2.123,-7.556c0,-3.409 0.799,-6.056 2.398,-7.943c1.599,-1.887 3.813,-2.83 6.643,-2.83c0.827,0 1.667,0.115 2.513,0.346c0.849,0.233 1.636,0.578 2.37,1.041c0.48,0.268 0.773,0.635 0.882,1.098c0.103,0.461 0.066,0.905 -0.118,1.328c-0.183,0.423 -0.48,0.731 -0.896,0.924c-0.414,0.193 -0.91,0.155 -1.486,-0.115c-0.597,-0.327 -1.171,-0.559 -1.718,-0.693c-0.55,-0.134 -1.084,-0.202 -1.603,-0.202c-3.16,0 -4.739,2.071 -4.739,6.211v0.548c0.404,-0.961 1.03,-1.709 1.878,-2.238c0.846,-0.529 1.82,-0.795 2.917,-0.795c1.157,0 2.182,0.284 3.077,0.853c0.896,0.567 1.603,1.347 2.123,2.339c0.52,0.992 0.78,2.123 0.78,3.395c0,1.347 -0.294,2.546 -0.882,3.597c-0.588,1.048 -1.396,1.871 -2.426,2.468c-1.031,0.596 -2.22,0.895 -3.567,0.895zM32.404,38.504c0.886,0 1.603,-0.303 2.151,-0.91c0.55,-0.607 0.825,-1.401 0.825,-2.384c0,-0.961 -0.275,-1.751 -0.825,-2.367c-0.548,-0.616 -1.265,-0.924 -2.151,-0.924c-0.905,0 -1.631,0.308 -2.182,0.924c-0.548,0.616 -0.823,1.406 -0.823,2.367c0,0.983 0.275,1.777 0.823,2.384c0.551,0.607 1.277,0.91 2.182,0.91z"></path></g></g></g></g></svg>