<svg clip-rule="evenodd" fill-rule="evenodd" stroke="#212121" stroke-width="0" stroke-linejoin="round" stroke-miterlimit="2" viewBox="0 0 24 24" xmlns="http://www.w3.org/2000/svg"><path d="M22 6a1 1 0 0 0-1-1H8.372a1.5 1.5 0 0 0-1.138.523 26793.79 26793.79 0 0 1-4.993 5.815 1 1 0 0 0-.001 1.302l4.994 5.835a1.5 1.5 0 0 0 1.14.525H21a1 1 0 0 0 1-1V6zm-13.628.5H20.5v11H8.374l-4.715-5.51zm5.637 4.427 1.71-1.71a.749.749 0 1 1 1.062 1.061l-1.711 1.711 1.728 1.728a.751.751 0 0 1-1.061 1.062l-1.728-1.729-1.728 1.729a.75.75 0 0 1-1.061-1.062l1.728-1.728-1.788-1.787a.749.749 0 1 1 1.062-1.062z" fill="#212121" fill-rule="nonzero" stroke="none"/></svg>