<svg xmlns="http://www.w3.org/2000/svg" xmlns:xlink="http://www.w3.org/1999/xlink" viewBox="0,0,256,256" width="64px" height="64px" fill-rule="nonzero"><g transform="translate(-44.8,-44.8) scale(1.35,1.35)"><g fill="none" fill-rule="nonzero" stroke="none" stroke-width="1" stroke-linecap="butt" stroke-linejoin="miter" stroke-miterlimit="10" stroke-dasharray="" stroke-dashoffset="0" font-family="none" font-weight="none" font-size="none" text-anchor="none" style="mix-blend-mode: normal"><g transform="scale(4,4)"><ellipse cx="32" cy="61" rx="19" ry="3" fill="#1e88e5" opacity="0.3"></ellipse><circle cx="32" cy="32" r="23" fill="#37d0ee"></circle><path d="M15,33c0,-9.925 8.075,-18 18,-18c2.761,0 5,-2.238 5,-5c0,-0.072 -0.018,-0.139 -0.021,-0.21c-1.907,-0.513 -3.91,-0.79 -5.979,-0.79c-12.703,0 -23,10.297 -23,23c0,2.069 0.278,4.072 0.79,5.979c0.071,0.003 0.138,0.021 0.21,0.021c2.761,0 5,-2.238 5,-5z" fill="#ffffff" opacity="0.3"></path><path d="M49,31c0,9.925 -8.075,18 -18,18c-2.761,0 -5,2.238 -5,5c0,0.072 0.018,0.139 0.021,0.21c1.907,0.513 3.91,0.79 5.979,0.79c12.703,0 23,-10.297 23,-23c0,-2.069 -0.278,-4.072 -0.79,-5.979c-0.071,-0.003 -0.138,-0.021 -0.21,-0.021c-2.761,0 -5,2.238 -5,5z" fill="#1e88e5" opacity="0.15"></path><path d="M15.688,25.481c-0.238,0 -0.479,-0.057 -0.705,-0.177c-0.731,-0.39 -1.007,-1.299 -0.617,-2.029c1.57,-2.943 3.845,-5.529 6.58,-7.479c0.675,-0.48 1.611,-0.323 2.092,0.352c0.48,0.674 0.324,1.61 -0.351,2.092c-2.359,1.682 -4.321,3.911 -5.675,6.447c-0.269,0.506 -0.788,0.794 -1.324,0.794z" fill="#ffffff"></path><g fill="#008aa9"><path d="M31.651,42c-0.993,0 -2.014,-0.121 -3.066,-0.363c-1.05,-0.245 -2.011,-0.629 -2.887,-1.154c-0.565,-0.311 -0.909,-0.715 -1.035,-1.211c-0.128,-0.496 -0.088,-0.962 0.116,-1.401c0.204,-0.437 0.534,-0.748 0.993,-0.933c0.456,-0.185 0.966,-0.121 1.532,0.19c1.361,0.738 2.781,1.109 4.26,1.109c1.109,0 1.969,-0.273 2.581,-0.817c0.613,-0.544 0.919,-1.273 0.919,-2.189c0,-0.933 -0.297,-1.681 -0.888,-2.246c-0.594,-0.563 -1.396,-0.845 -2.408,-0.845c-0.506,0 -1.021,0.083 -1.546,0.247c-0.527,0.166 -1.052,0.454 -1.577,0.862c-0.195,0.154 -0.451,0.302 -0.774,0.437c-0.321,0.135 -0.646,0.204 -0.976,0.204c-1.187,0 -1.781,-0.553 -1.781,-1.662v-9.164c0,-1.301 0.653,-1.954 1.954,-1.954h9.368c1.304,0 1.954,0.622 1.954,1.866c0,1.225 -0.651,1.84 -1.954,1.84h-6.974v4.609c0.952,-0.622 2.102,-0.933 3.443,-0.933c1.304,0 2.441,0.278 3.415,0.831c0.971,0.556 1.731,1.327 2.275,2.32c0.544,0.993 0.817,2.139 0.817,3.443c0,1.382 -0.311,2.588 -0.933,3.619c-0.622,1.031 -1.517,1.838 -2.683,2.422c-1.17,0.581 -2.552,0.873 -4.145,0.873z"></path></g></g></g></g></svg>